<svg width="36" height="24" viewBox="0 0 36 24" fill="none" xmlns="http://www.w3.org/2000/svg">
<path fill-rule="evenodd" clip-rule="evenodd" d="M8 6C8 3.79086 10.1689 2 12.8443 2H20.1107V6C20.1107 8.20914 22.2796 10 24.955 10H27.3772V18C27.3772 20.2091 25.2083 22 22.5329 22H12.8443C10.1689 22 8 20.2091 8 18V6ZM12.8443 11C12.1754 11 11.6332 11.4477 11.6332 12C11.6332 12.5523 12.1754 13 12.8443 13H15.2664C15.9353 13 16.4775 12.5523 16.4775 12C16.4775 11.4477 15.9353 11 15.2664 11H12.8443ZM12.8443 15C12.1754 15 11.6332 15.4477 11.6332 16C11.6332 16.5523 12.1754 17 12.8443 17H17.6886C18.3574 17 18.8997 16.5523 18.8997 16C18.8997 15.4477 18.3574 15 17.6886 15H12.8443ZM23.3586 4.19879L23.2 6.16288C23.1513 6.76656 23.7579 7.26743 24.489 7.22718L26.8676 7.09624C27.9058 7.03909 28.3792 5.99887 27.6434 5.39135L25.4233 3.5582C24.6876 2.95068 23.4278 3.34153 23.3586 4.19879Z" fill="white"/>
</svg>
