<svg width="24" height="24" viewBox="0 0 24 24" fill="none" xmlns="http://www.w3.org/2000/svg">
<path d="M20.999 17.0088C20.9974 17.568 20.8407 18.0935 20.5684 18.5352L20.5625 18.5459L20.5566 18.5557C20.404 18.8173 20.2078 19.0484 19.9873 19.2334L19.9736 19.2451L19.9609 19.2568C19.4426 19.7233 18.7602 20 18 20C16.9055 20 15.9559 19.417 15.4395 18.5488L15.4316 18.5352L15.3389 18.373L16.1934 19.2275C16.5407 19.5746 16.9892 19.7402 17.4297 19.7402C17.8527 19.7402 18.2871 19.5801 18.6182 19.2734L18.6191 19.2744L20.749 17.3037L20.7568 17.2969L20.7646 17.2891C20.8537 17.203 20.9313 17.1084 20.999 17.0088ZM18 14C18.4609 14 18.8961 14.1065 19.2861 14.292C19.0094 14.3348 18.7402 14.4447 18.5049 14.623L18.3672 14.7393L17.458 15.5801C16.8141 15.1188 15.9234 15.1463 15.3105 15.665C15.5047 15.274 15.7822 14.932 16.1211 14.6631L16.123 14.6621C16.6452 14.2459 17.298 14 18 14Z" fill="white" stroke="white" stroke-width="2"/>
<path opacity="0.4" d="M12 14.5C12.7324 14.5 13.4468 14.5738 14.123 14.7168C13.7288 15.3883 13.5 16.1714 13.5 17C13.5 17.8436 13.7363 18.6443 14.1543 19.3223V19.3213C14.3795 19.7022 14.6698 20.0472 15.0029 20.3379V20.3389C15.7917 21.06 16.8407 21.5 18 21.5C18.9424 21.5 19.816 21.2089 20.5361 20.7139C20.5716 20.9698 20.5898 21.2321 20.5898 21.5H3.41016C3.41016 17.7221 7.17167 14.5001 12 14.5Z" fill="white" stroke="white"/>
<path d="M12 2.5C14.4853 2.5 16.5 4.51472 16.5 7C16.5 9.48528 14.4853 11.5 12 11.5C9.51472 11.5 7.5 9.48528 7.5 7C7.5 4.51472 9.51472 2.5 12 2.5Z" fill="white" stroke="white"/>
</svg>
